<svg viewBox="0 0 569 569" xmlns="http://www.w3.org/2000/svg" xmlns:c2pa="http://c2pa.org/manifest"><metadata><c2pa:manifest>AAAWgmp1bWIAAAAeanVtZGMycGEAEQAQgAAAqgA4m3EDYzJwYQAAABZcanVtYgAAAEdqdW1kYzJtYQARABCAAACqADibcQN1cm46YzJwYTplN2QzNzAxMy1lYTI1LTQ2OWItYTljMC1lYWNlNDJhNTFiMzUAAAADl2p1bWIAAAApanVtZGMyYXMAEQAQgAAAqgA4m3EDYzJwYS5hc3NlcnRpb25zAAAAALxqdW1iAAAARGp1bWRjYm9yABEAEIAAAKoAOJtxE2MycGEuaW5ncmVkaWVudC52MwAAAAAYYzJzaFGqjWwDKYIxDz2fnPYoOEoAAABwY2JvcqNpZGM6Zm9ybWF0bWltYWdlL3N2Zyt4bWxqaW5zdGFuY2VJRHgseG1wOmlpZDpiMDU0YjYwMC0xM2U2LTRjNTUtYWY2NS0yODc4ZjNhYzRkYmRscmVsYXRpb25zaGlwaHBhcmVudE9mAAAB4mp1bWIAAABBanVtZGNib3IAEQAQgAAAqgA4m3ETYzJwYS5hY3Rpb25zLnYyAAAAABhjMnNo8zLUzUtXOcZLrSKD0cXGaAAAAZljYm9yomdhY3Rpb25zgqJmYWN0aW9ua2MycGEub3BlbmVkanBhcmFtZXRlcnOha2luZ3JlZGllbnRzgaJjdXJseC1zZWxmI2p1bWJmPWMycGEuYXNzZXJ0aW9ucy9jMnBhLmluZ3JlZGllbnQudjNkaGFzaFggaSDQxA8DJr2yxVVhTbK2EH+g6xHTn1ZL/7BEtVmoEK6kZmFjdGlvbngdY29tLmFudGhyb3BpYy5jbGF1ZGUucHJvdmlkZWRqcGFyYW1ldGVyc6F4H2NvbS5hbnRocm9waWMub3JpZ2luLWNvbmZpZGVuY2VndW5rbm93bmtkZXNjcmlwdGlvbnhmQ2xhdWRlIHByb3ZpZGVkIHRoaXMgZmlsZSBhdCB0aGUgcmVxdWVzdCBvZiBhIHVzZXIgYW5kIG1heSBoYXZlIGNyZWF0ZWQgb3IgbW9kaWZpZWQgdGhlIGZpbGUgY29udGVudHMubXNvZnR3YXJlQWdlbnShZG5hbWVmQ2xhdWRlcmFsbEFjdGlvbnNJbmNsdWRlZPUAAADIanVtYgAAAEBqdW1kY2JvcgARABCAAACqADibcRNjMnBhLmhhc2guZGF0YQAAAAAYYzJzaKazmbcv4wvdQ/MvTBscNOQAAACAY2JvcqVjYWxnZnNoYTI1NmNwYWRNAAAAAAAAAAAAAAAAAGRoYXNoWCAY2bNlvAF2xFBjiI0EOr7Gg541r5zRRbXj02FOgqWM/GRuYW1lbmp1bWJmIG1hbmlmZXN0amV4Y2x1c2lvbnOBomVzdGFydBh9Zmxlbmd0aBkeBAAAAj5qdW1iAAAAJ2p1bWRjMmNsABEAEIAAAKoAOJtxA2MycGEuY2xhaW0udjIAAAACD2Nib3KlY2FsZ2ZzaGEyNTZpc2lnbmF0dXJleE1zZWxmI2p1bWJmPS9jMnBhL3VybjpjMnBhOmU3ZDM3MDEzLWVhMjUtNDY5Yi1hOWMwLWVhY2U0MmE1MWIzNS9jMnBhLnNpZ25hdHVyZWppbnN0YW5jZUlEeCx4bXA6aWlkOjA3Yjg2YjRiLWM0YjEtNGI1MS1hOWRhLTNhZDM3MTAyZTlhYnJjcmVhdGVkX2Fzc2VydGlvbnODomN1cmx4LXNlbGYjanVtYmY9YzJwYS5hc3NlcnRpb25zL2MycGEuaW5ncmVkaWVudC52M2RoYXNoWCBpINDEDwMmvbLFVWFNsrYQf6DrEdOfVkv/sES1WagQrqJjdXJseCpzZWxmI2p1bWJmPWMycGEuYXNzZXJ0aW9ucy9jMnBhLmFjdGlvbnMudjJkaGFzaFggGlyBfKqaAKXk+cGSFIDR17kXWhNB4YGtZGLU3YOmqi6iY3VybHgpc2VsZiNqdW1iZj1jMnBhLmFzc2VydGlvbnMvYzJwYS5oYXNoLmRhdGFkaGFzaFgg8/iI1eIPGcMIlYdEWD6JvuasMUC+dbwUxQ600JloVz10Y2xhaW1fZ2VuZXJhdG9yX2luZm+jZG5hbWVvQW50aHJvcGljIEZpbGVzZ3ZlcnNpb25lMS4wLjBrc3BlY1ZlcnNpb25lMi40LjAAABA4anVtYgAAAChqdW1kYzJjcwARABCAAACqADibcQNjMnBhLnNpZ25hdHVyZQAAABAIY2JvctKEWQISogEmGCFZAgowggIGMIIBjaADAgECAhRA5aAK7sI50L64g/oGQgU9Z1UTADAKBggqhkjOPQQDAzBJMRcwFQYDVQQKEw5BbnRocm9waWMsIFBCQzEuMCwGA1UEAxMlQW50aHJvcGljIENvbnRlbnQgQ3JlZGVudGlhbHMgUm9vdCBDQTAeFw0yNjA4MDcxODQzNTZaFw0yODA4MDYxOTQzNTZaMEQxFzAVBgNVBAoTDkFudGhyb3BpYywgUEJDMSkwJwYDVQQDEyBBbnRocm9waWMgQ2xhdWRlIENvbnRlbnQgU2lnbmluZzBZMBMGByqGSM49AgEGCCqGSM49AwEHA0IABJh6CmvLUBgFFNU0vUKlOVtE6djd17L5SuwX0LemFisBM3dkd/3cyjxFA3Qo5S46fX0/ihY0VZ7mfb9KF703t5OjWDBWMA4GA1UdDwEB/wQEAwIHgDAVBgNVHSUEDjAMBgorBgEEAYPoXgIBMAwGA1UdEwEB/wQCMAAwHwYDVR0jBBgwFoAUzlHiBIFOZFsj+OPEz5o+nMHXXMIwCgYIKoZIzj0EAwMDZwAwZAIwMXMdFJ4BetLLVY7ORuE9noqbbAZOZn/aArXyTwFAZfKrPzxF2vPoJNf1+UCdg1XGAjBwX1zd9WGqYkqmL5SFqw1QySjr1zJfpJM9+1rdDwSPLMOPOjKuiXjoU/pUUeG9RwmhY3BhZFkNngAAAAAAAAAAAAAAAAAAAAAAAAAAAAAAAAAAAAAAAAAAAAAAAAAAAAAAAAAAAAAAAAAAAAAAAAAAAAAAAAAAAAAAAAAAAAAAAAAAAAAAAAAAAAAAAAAAAAAAAAAAAAAAAAAAAAAAAAAAAAAAAAAAAAAAAAAAAAAAAAAAAAAAAAAAAAAAAAAAAAAAAAAAAAAAAAAAAAAAAAAAAAAAAAAAAAAAAAAAAAAAAAAAAAAAAAAAAAAAAAAAAAAAAAAAAAAAAAAAAAAAAAAAAAAAAAAAAAAAAAAAAAAAAAAAAAAAAAAAAAAAAAAAAAAAAAAAAAAAAAAAAAAAAAAAAAAAAAAAAAAAAAAAAAAAAAAAAAAAAAAAAAAAAAAAAAAAAAAAAAAAAAAAAAAAAAAAAAAAAAAAAAAAAAAAAAAAAAAAAAAAAAAAAAAAAAAAAAAAAAAAAAAAAAAAAAAAAAAAAAAAAAAAAAAAAAAAAAAAAAAAAAAAAAAAAAAAAAAAAAAAAAAAAAAAAAAAAAAAAAAAAAAAAAAAAAAAAAAAAAAAAAAAAAAAAAAAAAAAAAAAAAAAAAAAAAAAAAAAAAAAAAAAAAAAAAAAAAAAAAAAAAAAAAAAAAAAAAAAAAAAAAAAAAAAAAAAAAAAAAAAAAAAAAAAAAAAAAAAAAAAAAAAAAAAAAAAAAAAAAAAAAAAAAAAAAAAAAAAAAAAAAAAAAAAAAAAAAAAAAAAAAAAAAAAAAAAAAAAAAAAAAAAAAAAAAAAAAAAAAAAAAAAAAAAAAAAAAAAAAAAAAAAAAAAAAAAAAAAAAAAAAAAAAAAAAAAAAAAAAAAAAAAAAAAAAAAAAAAAAAAAAAAAAAAAAAAAAAAAAAAAAAAAAAAAAAAAAAAAAAAAAAAAAAAAAAAAAAAAAAAAAAAAAAAAAAAAAAAAAAAAAAAAAAAAAAAAAAAAAAAAAAAAAAAAAAAAAAAAAAAAAAAAAAAAAAAAAAAAAAAAAAAAAAAAAAAAAAAAAAAAAAAAAAAAAAAAAAAAAAAAAAAAAAAAAAAAAAAAAAAAAAAAAAAAAAAAAAAAAAAAAAAAAAAAAAAAAAAAAAAAAAAAAAAAAAAAAAAAAAAAAAAAAAAAAAAAAAAAAAAAAAAAAAAAAAAAAAAAAAAAAAAAAAAAAAAAAAAAAAAAAAAAAAAAAAAAAAAAAAAAAAAAAAAAAAAAAAAAAAAAAAAAAAAAAAAAAAAAAAAAAAAAAAAAAAAAAAAAAAAAAAAAAAAAAAAAAAAAAAAAAAAAAAAAAAAAAAAAAAAAAAAAAAAAAAAAAAAAAAAAAAAAAAAAAAAAAAAAAAAAAAAAAAAAAAAAAAAAAAAAAAAAAAAAAAAAAAAAAAAAAAAAAAAAAAAAAAAAAAAAAAAAAAAAAAAAAAAAAAAAAAAAAAAAAAAAAAAAAAAAAAAAAAAAAAAAAAAAAAAAAAAAAAAAAAAAAAAAAAAAAAAAAAAAAAAAAAAAAAAAAAAAAAAAAAAAAAAAAAAAAAAAAAAAAAAAAAAAAAAAAAAAAAAAAAAAAAAAAAAAAAAAAAAAAAAAAAAAAAAAAAAAAAAAAAAAAAAAAAAAAAAAAAAAAAAAAAAAAAAAAAAAAAAAAAAAAAAAAAAAAAAAAAAAAAAAAAAAAAAAAAAAAAAAAAAAAAAAAAAAAAAAAAAAAAAAAAAAAAAAAAAAAAAAAAAAAAAAAAAAAAAAAAAAAAAAAAAAAAAAAAAAAAAAAAAAAAAAAAAAAAAAAAAAAAAAAAAAAAAAAAAAAAAAAAAAAAAAAAAAAAAAAAAAAAAAAAAAAAAAAAAAAAAAAAAAAAAAAAAAAAAAAAAAAAAAAAAAAAAAAAAAAAAAAAAAAAAAAAAAAAAAAAAAAAAAAAAAAAAAAAAAAAAAAAAAAAAAAAAAAAAAAAAAAAAAAAAAAAAAAAAAAAAAAAAAAAAAAAAAAAAAAAAAAAAAAAAAAAAAAAAAAAAAAAAAAAAAAAAAAAAAAAAAAAAAAAAAAAAAAAAAAAAAAAAAAAAAAAAAAAAAAAAAAAAAAAAAAAAAAAAAAAAAAAAAAAAAAAAAAAAAAAAAAAAAAAAAAAAAAAAAAAAAAAAAAAAAAAAAAAAAAAAAAAAAAAAAAAAAAAAAAAAAAAAAAAAAAAAAAAAAAAAAAAAAAAAAAAAAAAAAAAAAAAAAAAAAAAAAAAAAAAAAAAAAAAAAAAAAAAAAAAAAAAAAAAAAAAAAAAAAAAAAAAAAAAAAAAAAAAAAAAAAAAAAAAAAAAAAAAAAAAAAAAAAAAAAAAAAAAAAAAAAAAAAAAAAAAAAAAAAAAAAAAAAAAAAAAAAAAAAAAAAAAAAAAAAAAAAAAAAAAAAAAAAAAAAAAAAAAAAAAAAAAAAAAAAAAAAAAAAAAAAAAAAAAAAAAAAAAAAAAAAAAAAAAAAAAAAAAAAAAAAAAAAAAAAAAAAAAAAAAAAAAAAAAAAAAAAAAAAAAAAAAAAAAAAAAAAAAAAAAAAAAAAAAAAAAAAAAAAAAAAAAAAAAAAAAAAAAAAAAAAAAAAAAAAAAAAAAAAAAAAAAAAAAAAAAAAAAAAAAAAAAAAAAAAAAAAAAAAAAAAAAAAAAAAAAAAAAAAAAAAAAAAAAAAAAAAAAAAAAAAAAAAAAAAAAAAAAAAAAAAAAAAAAAAAAAAAAAAAAAAAAAAAAAAAAAAAAAAAAAAAAAAAAAAAAAAAAAAAAAAAAAAAAAAAAAAAAAAAAAAAAAAAAAAAAAAAAAAAAAAAAAAAAAAAAAAAAAAAAAAAAAAAAAAAAAAAAAAAAAAAAAAAAAAAAAAAAAAAAAAAAAAAAAAAAAAAAAAAAAAAAAAAAAAAAAAAAAAAAAAAAAAAAAAAAAAAAAAAAAAAAAAAAAAAAAAAAAAAAAAAAAAAAAAAAAAAAAAAAAAAAAAAAAAAAAAAAAAAAAAAAAAAAAAAAAAAAAAAAAAAAAAAAAAAAAAAAAAAAAAAAAAAAAAAAAAAAAAAAAAAAAAAAAAAAAAAAAAAAAAAAAAAAAAAAAAAAAAAAAAAAAAAAAAAAAAAAAAAAAAAAAAAAAAAAAAAAAAAAAAAAAAAAAAAAAAAAAAAAAAAAAAAAAAAAAAAAAAAAAAAAAAAAAAAAAAAAAAAAAAAAAAAAAAAAAAAAAAAAAAAAAAAAAAAAAAAAAAAAAAAAAAAAAAAAAAAAAAAAAAAAAAAAAAAAAAAAAAAAAAAAAAAAAAAAAAAAAAAAAAAAAAAAAAAAAAAAAAAAAAAAAAAAAAAAAAAAAAAAAAAAAAAAAAAAAAAAAAAAAAAAAAAAAAAAAAAAAAAAAAAAAAAAAAAAAAAAAAAAAAAAAAAAAAAAAAAAAAAAAAAAAAAAAAAAAAAAAAAAAAAAAAAAAAAAAAAAAAAAAAAAAAAAAAAAAAAAAAAAAAAAAAAAAAAAAAAAAAAAAAAAAAAAAAAAAAAAAAAAAAAAAAAAAAAAAAAAAAAAAAAAAAAAAAAAAAAAAAAAAAAAAAAAAAAAAAAAAAAAAAAAAAAAAAAAAAAAAAAAAAAAAAAAAAAAAAAAAAAAAAAAAAAAAAAAAAAAAAAAAAAAAAAAAAAAAAAAAAAAAAAAAAAAAAAAAAAAAAAAAAAAAAAAAAAAAAAAAAAAAAAAAAAAAAAAAAAAAAAAAAAAAAAAAAAAAAAAAAAAAAAAAAAAAAAAAAAAAAAAAAAAAAAAAAAAAAAAAAAAAAAAAAAAAAAAAAAAAAAAAAAAAAAAAAAAAAAAAAAAAAAAAAAAAAAAAAAAAAAAAAAAAAAAAAAAAAAAAAAAAAAAAAAAAAAAAAAAAAAAAAAAAAAAAAAAAAAAAAAAAAAAAAAAAAAAAAAAAAAAAAAAAAAAAAAAAAAAAAAAAAAAAAAAAAAAAAAAAAAAAAAAAAAAAAAAAAAAAAAAAAAAAAAAAAAAAAAAAAAAAAAAAAAAAAAAAAAAAAAAAAAAAAAAAAAAAAAAAAAAAAAAAAAAAAAAAAAAAAAAAAAAAAAAAAAAAAAAAAAAAAAAAAAAAAAAAAAAAAAAAAAAAAAAAAAAAAAAAAAAAAAAAAAAAAAAAAAAAAAAAAAAAAAAAAAAAAAAAAAAAAAAAAAAAAAAAAAAAAAAAAAAAAAAAAAAAAAAAAAAAAAAAAAAAAAAAAAAAAAAAAAAAAAAAAAAAAAAAAAAAAAAAAAAAAAAAAAAAAAAAAAAAAAAAAAAAAAAAAAAAAAAAAAAAAAAAAAAAAAAAAAAAAAAAAAAAAAAAAAAAAAAAAAAAAAAAAAAAAAAAAAAAAAAAAAAAAAAAAAAAAAAAAAAAAAAAAAAAAAAAAAAAAAAAAAAAAAAAAAAAAAAAAAAAAAAAAAAAAAAAAAAAAAAAAAAAAAAAAAAAAAAAAAAAAAAAAAAAAAAAAAAAAAAAAAAAAAAAAAAAAAAAAAAAAAAAAAAAAAAAAAAAAAAAAAAAAAAAAAAAAAAAAAAAAAAAAAAAAAAAAAAAAAAAAAAAAAAAAAAAAAAAAAAAAAAAAAAAAAAAAAAAAAAAAAAAAAAAAAAAAAAAAAAAAAAAAAAAAAAAAAAAAAAAAAAAAAAAAAAAAAAAAAAAAAAAAAAAAAAAAAAAAAAAAAAAAAAAAAAAAAAAAAAAAAAAAAAAAAAAAAAAAAAAAAAAAAAAAPZYQCjYAucizlRcYKDqqzMrReuDJ0fGc1CrRMc4I4pYrjmJQC/+oxNAH1BUIE8WUT7axvgf1ExPP8nJtzAXEbdNO7Q=</c2pa:manifest></metadata>
<path fill="#f5cb54" fill-rule="evenodd" d="M206,381 L206,384 L207,385 L207,386 L206,387 L206,388 L205,389 L205,390 L206,391 L211,391 L212,390 L212,389 L211,388 L211,387 L210,386 L209,386 L208,385 L209,384 L211,384 L211,382 L210,381 Z M265,335 L265,347 L266,348 L266,359 L268,359 L269,358 L271,358 L273,356 L275,356 L275,355 L281,349 L281,344 L279,342 L279,341 L276,338 L275,338 L274,337 L274,336 L272,336 L271,337 L270,337 L269,336 L269,335 Z M277,138 L275,140 L267,139 L264,141 L242,144 L231,150 L220,153 L194,169 L172,191 L153,220 L147,239 L145,240 L142,251 L138,288 L140,290 L139,301 L141,303 L143,321 L150,337 L151,344 L168,372 L186,392 L209,409 L222,416 L233,419 L236,422 L239,421 L242,424 L265,427 L266,429 L273,428 L274,430 L293,430 L295,428 L302,429 L303,427 L326,424 L329,421 L333,422 L335,419 L350,414 L377,396 L397,376 L414,350 L421,329 L423,328 L426,317 L427,301 L429,300 L428,287 L430,282 L428,281 L428,268 L424,243 L418,231 L416,222 L400,196 L384,180 L383,177 L359,159 L354,158 L346,152 L337,150 L332,146 L330,147 L326,144 L302,140 L288,140 L287,138 L279,138 L278,140 Z M287,393 L287,392 L288,391 L293,391 L294,392 L292,394 L291,393 L290,393 L289,394 L288,394 Z M267,391 L268,390 L269,390 L270,391 L273,391 L274,392 L274,393 L273,394 L273,395 L272,396 L271,396 L270,395 L270,394 Z M358,380 L359,380 L360,381 L359,382 L359,383 L360,384 L361,384 L362,385 L363,385 L366,388 L366,390 L365,391 L365,392 L364,393 L363,393 L362,394 L359,394 L357,392 L358,391 L362,391 L362,390 L363,389 L362,388 L361,388 L360,387 L359,387 L357,385 L357,381 Z M237,380 L238,380 L239,381 L239,393 L238,394 L236,392 L236,381 Z M296,379 L297,380 L297,389 L294,392 L293,391 L293,389 L294,388 L294,380 L295,379 Z M285,379 L286,380 L286,389 L285,390 L284,389 L284,380 Z M274,379 L275,379 L277,381 L277,382 L278,383 L278,389 L276,391 L275,390 L275,388 L276,387 L276,385 L275,384 L275,383 L274,382 L273,382 L272,381 Z M258,379 L259,380 L259,391 L257,393 L251,387 L251,386 L252,385 L253,386 L255,386 L256,387 L256,381 Z M221,379 L223,381 L223,383 L222,384 L222,385 L223,386 L223,387 L224,388 L223,389 L223,393 L222,394 L221,394 L220,393 L220,380 Z M343,378 L345,378 L346,379 L347,379 L350,382 L350,384 L352,386 L350,388 L349,387 L349,386 L348,385 L348,383 L347,383 L346,382 L345,382 L344,381 L343,381 L342,382 L341,382 L340,383 L340,384 L339,385 L339,388 L340,389 L340,390 L341,390 L342,391 L346,391 L347,390 L348,391 L348,392 L346,394 L342,394 L340,392 L339,392 L336,389 L336,384 L339,381 L339,380 L340,379 L342,379 Z M320,378 L325,378 L326,379 L327,379 L329,381 L329,382 L331,384 L331,389 L330,390 L330,391 L329,392 L327,392 L326,391 L327,390 L327,389 L328,388 L328,385 L327,384 L327,383 L325,381 L323,381 L322,382 L322,391 L326,391 L327,392 L325,394 L320,394 L319,393 L319,379 Z M304,378 L312,378 L313,379 L313,380 L312,381 L306,381 L306,384 L307,385 L308,385 L309,384 L310,384 L312,386 L310,388 L306,388 L305,389 L305,390 L306,391 L312,391 L313,392 L313,393 L312,394 L311,393 L310,393 L309,394 L308,393 L307,393 L306,394 L304,394 L303,393 L303,379 Z M272,378 L273,379 L273,380 L272,381 L271,381 L270,382 L269,382 L268,383 L268,384 L267,385 L267,387 L268,388 L268,390 L267,391 L265,389 L265,383 L266,382 L266,381 L268,379 L270,379 L271,378 Z M247,378 L251,382 L251,384 L250,385 L249,385 L249,386 L248,387 L248,389 L249,390 L249,391 L247,393 L246,392 L246,379 Z M225,378 L226,378 L227,379 L228,379 L229,380 L229,381 L230,381 L231,382 L231,386 L230,387 L229,387 L228,388 L228,389 L227,390 L226,390 L225,389 L225,388 L227,386 L227,384 L228,383 L227,382 L226,382 L225,381 L224,381 L223,380 Z M204,378 L210,378 L211,379 L212,379 L214,381 L214,387 L215,388 L215,390 L214,391 L214,392 L213,393 L212,393 L211,394 L204,394 L203,393 L203,379 Z M241,327 L246,327 L248,329 L248,331 L249,332 L249,357 L248,358 L248,366 L245,369 L245,370 L244,371 L241,371 L239,369 L239,367 L238,366 L238,364 L237,363 L237,337 L238,336 L238,332 L239,331 L239,329 Z M278,327 L279,328 L280,328 L282,330 L282,331 L283,330 L287,334 L286,335 L287,336 L288,336 L289,337 L289,338 L290,339 L290,341 L291,342 L291,354 L290,355 L290,356 L289,357 L289,358 L284,363 L284,364 L283,365 L281,365 L280,366 L279,366 L278,367 L277,367 L276,368 L275,368 L275,369 L274,370 L272,370 L271,371 L269,371 L268,370 L268,371 L267,372 L262,372 L261,371 L260,372 L259,372 L258,371 L256,371 L254,369 L254,365 L255,364 L255,363 L256,362 L256,359 L255,358 L255,356 L256,355 L255,354 L255,344 L256,343 L256,339 L257,338 L257,336 L256,335 L257,334 L257,330 L259,328 L260,328 L261,327 L264,327 L265,326 L273,326 L274,327 Z M227,326 L228,327 L228,328 L229,328 L230,329 L230,333 L229,334 L228,334 L226,336 L224,336 L224,337 L221,340 L219,340 L219,341 L216,344 L215,344 L212,347 L212,348 L213,349 L214,348 L216,350 L216,351 L218,351 L221,354 L221,355 L222,356 L223,355 L224,356 L224,357 L226,359 L228,359 L232,363 L232,364 L233,365 L233,367 L232,368 L232,369 L229,372 L228,372 L227,371 L225,371 L223,369 L222,370 L220,367 L218,367 L215,364 L215,362 L214,362 L211,359 L211,358 L209,356 L209,355 L208,355 L207,354 L204,354 L204,366 L205,367 L205,368 L203,371 L200,371 L196,367 L196,329 L198,327 L200,327 L203,329 L202,330 L202,332 L203,333 L203,340 L205,342 L205,343 L205,342 L206,341 L209,341 L210,340 L210,339 L219,330 L220,331 L220,330 L224,326 Z M338,324 L342,324 L344,326 L344,327 L346,329 L346,330 L347,331 L347,332 L350,335 L350,336 L351,337 L351,338 L354,341 L355,341 L356,340 L356,339 L359,336 L358,335 L359,334 L360,334 L360,333 L361,332 L361,331 L363,329 L364,329 L367,326 L370,326 L372,328 L372,333 L370,335 L370,336 L369,337 L368,337 L367,338 L367,339 L365,341 L365,343 L363,345 L363,346 L360,349 L359,349 L359,351 L360,352 L360,355 L359,356 L359,361 L361,363 L361,367 L359,369 L359,371 L358,372 L352,372 L350,370 L350,356 L351,355 L351,354 L350,353 L350,352 L348,350 L347,350 L344,347 L344,346 L342,344 L342,343 L341,342 L341,340 L340,339 L340,337 L339,336 L339,335 L337,333 L337,332 L336,331 L336,328 L335,327 Z M328,324 L331,327 L331,333 L330,334 L330,336 L329,337 L329,338 L326,341 L326,342 L325,343 L325,345 L324,346 L323,346 L323,347 L321,349 L321,350 L320,351 L320,352 L319,353 L318,353 L316,355 L316,356 L312,360 L313,360 L314,361 L313,362 L311,362 L313,362 L314,363 L315,363 L316,362 L317,363 L318,363 L319,362 L320,363 L321,362 L322,362 L323,363 L326,363 L327,362 L329,362 L330,363 L330,365 L331,366 L331,367 L330,368 L330,370 L328,372 L326,372 L325,373 L302,373 L300,371 L298,371 L297,370 L298,369 L297,368 L297,363 L296,362 L297,361 L298,361 L297,360 L298,359 L299,359 L299,357 L303,353 L303,352 L305,350 L306,350 L308,348 L308,346 L317,337 L317,335 L318,334 L317,333 L317,332 L300,332 L298,330 L298,329 L299,328 L299,326 L300,325 L301,325 L302,324 L314,324 L315,323 L325,323 L326,324 Z M238,166 L252,166 L253,167 L258,166 L272,166 L273,167 L276,166 L282,166 L283,167 L337,166 L340,168 L341,170 L341,192 L342,193 L342,244 L375,244 L379,246 L378,248 L380,255 L379,260 L380,264 L380,321 L379,322 L346,322 L345,323 L341,322 L340,323 L339,322 L326,322 L325,321 L321,323 L320,321 L303,320 L302,322 L297,321 L296,322 L295,320 L294,321 L293,320 L292,322 L248,322 L246,323 L245,322 L222,322 L221,321 L208,322 L207,321 L189,321 L188,320 L189,246 L191,244 L234,244 L233,242 L233,184 L234,183 L234,169 Z"/>
<path fill="#dfa547" fill-rule="evenodd" d="M257,339 L257,343 L256,344 L256,354 L257,355 L256,356 L256,358 L257,359 L257,360 Z M212,261 L212,284 L211,285 L211,287 L212,288 L212,290 L211,291 L211,295 L212,296 L212,302 L211,303 L211,304 L212,305 L229,305 L230,304 L233,304 L234,303 L235,303 L239,299 L239,298 L241,296 L241,293 L242,292 L242,290 L241,289 L241,287 L240,286 L240,285 L236,281 L236,280 L237,279 L237,278 L238,277 L238,276 L239,275 L239,273 L240,272 L240,270 L239,269 L239,267 L238,266 L238,265 L237,264 L237,263 L236,263 L235,262 L233,262 L232,261 L229,261 L228,260 L216,260 L215,261 Z M217,284 L222,284 L223,283 L232,283 L233,284 L234,284 L237,287 L237,291 L238,292 L237,293 L237,296 L236,297 L236,298 L232,302 L231,302 L230,303 L217,303 L216,302 L216,299 L215,298 L215,286 Z M214,264 L215,263 L231,263 L232,264 L233,264 L234,265 L235,265 L237,267 L237,275 L236,276 L236,277 L233,280 L232,280 L231,281 L226,281 L225,282 L219,282 L218,283 L217,282 L216,282 L215,281 L215,279 L214,278 L215,277 L215,273 L214,272 Z M277,256 L277,258 L275,260 L272,260 L270,262 L270,304 L271,304 L272,305 L275,305 L276,304 L276,303 L275,302 L276,301 L276,291 L276,294 L275,295 L274,295 L273,294 L273,287 L274,286 L276,288 L276,289 L276,285 L275,284 L275,281 L276,280 L276,269 L276,279 L274,281 L273,280 L273,273 L272,272 L272,265 L274,263 L275,263 L276,264 L276,259 L277,258 Z M190,246 L190,263 L189,264 L189,320 L207,320 L208,321 L217,321 L218,320 L221,320 L222,321 L245,321 L246,322 L248,321 L292,321 L279,321 L276,319 L276,314 L274,318 L273,316 L266,316 L265,317 L264,316 L263,317 L260,313 L261,309 L262,308 L262,263 L261,262 L262,259 L261,258 L261,255 L262,254 L262,251 L263,250 L266,250 L267,249 L270,249 L271,250 L273,250 L274,249 L277,252 L277,254 L277,252 L276,251 L276,248 L275,247 L276,246 L261,246 L260,247 L258,246 L236,246 L235,245 L191,245 Z M197,250 L206,250 L208,248 L211,250 L213,250 L214,249 L222,249 L223,250 L224,250 L225,249 L245,249 L246,248 L247,249 L255,249 L256,250 L256,251 L257,252 L256,253 L256,295 L255,296 L255,309 L256,310 L256,314 L254,317 L220,317 L219,316 L199,316 L198,315 L197,316 L195,314 L195,313 L194,312 L194,309 L195,308 L195,252 Z"/>
<path fill="#e6d4b1" fill-rule="evenodd" d="M370,294 L370,297 L369,298 L369,300 L368,301 L368,302 L367,303 L367,304 L366,305 L365,305 L364,306 L363,306 L362,307 L360,307 L359,306 L357,306 L353,302 L353,301 L352,300 L352,299 L351,298 L351,295 L351,309 L349,311 L349,312 L350,313 L349,314 L354,314 L355,315 L360,315 L361,314 L362,314 L363,315 L364,314 L368,314 L369,315 L371,315 L371,302 L370,301 Z M217,286 L217,297 L218,298 L218,301 L230,301 L231,300 L232,300 L234,298 L234,297 L235,296 L235,295 L236,294 L236,290 L235,289 L235,287 L234,286 L233,286 L232,285 L223,285 L222,286 Z M233,286 L234,287 L234,288 L236,290 L236,294 L230,300 L229,300 L228,301 L225,301 L224,300 L220,300 L218,298 L218,292 L217,291 L217,288 L219,286 L228,286 L229,285 L231,285 L232,286 Z M361,267 L359,269 L359,270 L358,271 L358,277 L357,278 L357,288 L358,289 L358,294 L359,295 L359,296 L360,297 L360,298 L362,298 L363,299 L364,298 L364,296 L365,295 L365,292 L366,291 L366,290 L367,289 L369,289 L370,290 L371,290 L370,289 L371,288 L371,284 L370,283 L371,282 L370,281 L371,280 L371,279 L370,278 L370,274 L368,274 L366,272 L366,270 L365,269 L365,268 L364,267 Z M216,265 L216,276 L217,277 L217,280 L226,280 L227,279 L232,279 L234,277 L234,276 L235,275 L235,272 L236,271 L235,270 L235,268 L233,266 L232,266 L231,265 L227,265 L226,264 L217,264 Z M217,266 L219,264 L222,264 L223,265 L229,265 L230,266 L231,266 L232,267 L233,267 L235,269 L235,273 L234,274 L234,276 L231,279 L225,279 L224,280 L223,279 L220,279 L217,276 L217,272 L216,271 L216,269 L217,268 Z M210,259 L209,260 L209,301 L208,302 L208,305 L211,308 L213,308 L214,307 L228,307 L229,306 L233,306 L234,305 L238,305 L238,304 L240,302 L240,301 L243,298 L243,297 L244,296 L244,287 L243,286 L243,285 L241,283 L241,282 L239,280 L239,278 L240,277 L241,277 L241,275 L242,274 L242,265 L241,265 L238,262 L238,261 L237,261 L236,260 L234,260 L233,259 L231,259 L230,258 L212,258 L211,259 Z M211,259 L215,259 L216,258 L228,258 L229,259 L232,259 L233,260 L234,260 L235,261 L236,261 L237,262 L238,262 L239,263 L239,264 L240,265 L240,266 L241,267 L241,271 L242,272 L241,273 L241,275 L240,276 L240,277 L239,278 L239,279 L238,280 L238,281 L239,281 L241,283 L241,284 L242,285 L242,286 L243,287 L243,289 L244,290 L244,293 L243,294 L243,296 L242,297 L242,298 L239,301 L239,302 L238,303 L237,303 L235,305 L232,305 L231,306 L214,306 L213,307 L212,307 L210,305 L210,294 L209,293 L209,292 L210,291 L210,260 Z M351,252 L351,271 L351,269 L352,268 L352,267 L353,266 L353,265 L358,260 L359,260 L360,259 L361,259 L362,258 L364,258 L365,259 L366,259 L368,261 L368,262 L370,264 L370,267 L371,267 L371,264 L372,263 L371,262 L371,258 L372,257 L372,255 L373,254 L373,253 L372,252 L366,252 L365,251 L363,251 L362,252 L360,252 L359,251 L354,251 L353,252 Z M284,252 L284,254 L283,255 L284,257 L284,259 L283,260 L283,272 L284,273 L283,300 L284,301 L284,306 L282,311 L284,315 L299,315 L299,314 L286,314 L284,312 L284,307 L285,306 L285,299 L284,298 L284,293 L283,292 L284,291 L284,273 L285,272 L284,271 L284,254 L286,252 L289,252 L290,253 L291,252 L308,252 L309,253 L311,253 L312,252 L339,252 L341,254 L340,255 L340,273 L339,274 L339,283 L340,284 L339,285 L339,288 L340,289 L339,291 L340,292 L340,295 L339,296 L339,303 L336,308 L337,310 L334,312 L326,313 L323,315 L304,315 L303,316 L329,316 L330,315 L335,315 L336,314 L337,314 L338,316 L340,316 L341,314 L340,312 L341,310 L341,303 L340,302 L340,272 L341,270 L340,268 L341,267 L341,256 L342,255 L342,252 L294,252 L293,251 L291,251 L290,252 L289,251 L286,251 Z M267,251 L266,252 L265,252 L265,253 L264,254 L264,310 L263,311 L263,313 L264,313 L265,314 L273,314 L275,312 L274,311 L274,308 L272,308 L271,307 L269,307 L268,306 L268,304 L267,303 L267,298 L268,297 L268,294 L267,293 L267,283 L268,282 L268,266 L267,265 L267,260 L269,258 L271,258 L272,257 L275,257 L275,252 L270,252 L269,251 Z M197,253 L197,313 L198,313 L199,314 L221,314 L222,315 L223,314 L226,314 L227,315 L244,315 L245,314 L252,314 L253,315 L254,315 L254,265 L255,264 L254,263 L254,260 L255,259 L255,257 L254,256 L254,253 L255,252 L254,251 L232,251 L231,252 L222,252 L221,251 L220,251 L219,252 L218,252 L217,251 L215,251 L214,252 L199,252 L198,253 Z M200,253 L204,253 L205,252 L222,252 L223,253 L225,253 L226,252 L252,252 L253,253 L253,255 L254,256 L254,262 L253,263 L253,270 L254,271 L254,272 L253,273 L253,302 L252,303 L252,304 L251,305 L251,306 L249,308 L249,309 L245,313 L240,313 L239,314 L238,313 L234,313 L233,314 L208,314 L207,313 L203,313 L202,314 L201,313 L200,313 L198,311 L198,290 L197,289 L198,288 L198,256 L199,255 L199,254 Z M323,212 L323,213 L322,214 L321,213 L320,214 L319,214 L318,213 L318,215 L319,216 L318,217 L317,217 L317,222 L316,223 L316,227 L315,228 L315,230 L314,231 L314,232 L313,233 L312,233 L311,232 L310,232 L310,238 L331,238 L331,236 L330,235 L330,231 L330,232 L329,233 L328,233 L327,232 L327,231 L326,230 L326,226 L325,225 L325,219 L324,218 L324,213 Z M321,194 L321,195 L320,196 L320,203 L319,204 L319,205 L320,206 L322,206 L323,205 L323,204 L322,203 L322,197 L321,196 Z M311,176 L310,177 L310,188 L311,189 L311,202 L310,203 L310,204 L310,203 L311,202 L312,203 L312,208 L311,209 L310,208 L310,206 L310,209 L311,210 L311,219 L310,220 L311,221 L311,225 L311,221 L312,220 L312,216 L313,215 L313,213 L312,212 L312,209 L313,208 L314,208 L314,202 L315,201 L315,195 L316,194 L316,190 L317,189 L317,185 L318,184 L318,182 L319,181 L321,181 L323,183 L323,184 L324,185 L324,187 L325,188 L325,191 L326,192 L326,196 L327,196 L328,197 L327,198 L327,202 L328,202 L329,203 L328,204 L328,208 L329,209 L329,217 L330,218 L330,224 L330,207 L331,206 L331,204 L330,203 L330,201 L329,200 L329,198 L331,196 L331,175 L330,176 L325,176 L324,175 L323,175 L322,176 L320,176 L319,175 L314,175 L313,176 Z M301,175 L292,175 L300,175 L301,176 L301,195 L300,196 L300,217 L301,218 L300,219 L300,224 L298,226 L298,229 L296,231 L295,230 L294,231 L295,230 L296,231 L296,232 L295,233 L295,234 L294,235 L293,235 L292,236 L289,236 L288,237 L286,237 L285,238 L284,238 L283,237 L282,237 L281,238 L282,239 L290,239 L291,238 L301,238 L301,235 L300,234 L301,233 L300,232 L300,223 L301,222 L301,214 L300,213 L300,212 L301,211 L301,209 L300,208 L301,207 L301,202 L300,201 L300,200 L301,199 Z"/>
<path fill="#53579c" fill-rule="evenodd" d="M320,183 L320,185 L319,186 L319,190 L318,191 L318,195 L317,196 L317,203 L316,204 L316,208 L315,209 L315,211 L314,212 L314,218 L313,219 L313,224 L312,225 L312,231 L313,231 L313,230 L314,229 L314,223 L315,222 L315,216 L316,215 L316,212 L317,211 L325,211 L326,212 L326,216 L327,217 L327,223 L328,224 L328,230 L329,231 L329,223 L328,222 L328,216 L327,215 L327,209 L326,208 L326,205 L325,204 L325,198 L324,197 L324,193 L323,192 L323,188 L322,187 L322,185 L321,184 L321,183 Z M321,188 L322,189 L322,192 L323,193 L323,198 L324,199 L324,203 L325,204 L325,206 L323,208 L319,208 L317,206 L317,202 L318,201 L318,196 L319,195 L319,191 L320,190 L320,189 Z M271,182 L269,184 L269,185 L268,186 L268,187 L267,188 L267,189 L266,190 L266,191 L265,192 L265,193 L264,194 L264,195 L263,196 L263,197 L262,198 L262,201 L261,202 L261,203 L260,204 L260,206 L259,207 L259,208 L258,209 L258,210 L257,211 L257,212 L256,213 L256,214 L255,215 L255,217 L254,218 L254,219 L253,220 L253,221 L252,222 L252,224 L251,225 L251,230 L252,229 L253,229 L254,228 L254,226 L255,225 L255,223 L256,222 L256,221 L257,220 L257,218 L258,217 L258,216 L259,215 L259,213 L262,210 L277,210 L278,209 L279,210 L282,210 L284,212 L284,213 L285,214 L285,215 L286,216 L286,218 L287,219 L287,221 L288,222 L288,223 L289,224 L289,226 L290,227 L290,228 L292,230 L294,230 L294,228 L293,227 L293,226 L292,225 L292,223 L291,222 L291,221 L290,220 L290,219 L289,218 L289,216 L288,215 L288,214 L287,213 L287,212 L286,211 L286,210 L285,209 L285,208 L284,207 L284,206 L283,205 L283,203 L282,202 L282,201 L281,200 L281,199 L280,198 L280,196 L279,195 L279,194 L277,192 L277,191 L276,190 L276,189 L275,188 L275,187 L274,186 L274,185 L272,183 L272,182 Z M271,187 L272,187 L273,188 L273,189 L275,191 L275,192 L276,193 L276,194 L277,195 L277,197 L278,198 L278,199 L279,200 L279,202 L280,203 L280,206 L279,207 L264,207 L263,206 L263,205 L264,204 L264,201 L265,200 L265,198 L266,197 L266,196 L267,195 L267,194 L268,193 L268,191 L269,190 L269,189 Z M237,170 L237,185 L236,186 L236,242 L237,243 L237,244 L329,244 L330,245 L338,245 L339,244 L339,215 L338,214 L338,212 L339,211 L339,210 L338,209 L338,207 L339,206 L339,205 L338,204 L338,202 L339,201 L339,200 L338,199 L338,197 L339,196 L339,195 L338,194 L338,169 L299,169 L298,170 L293,170 L292,169 L238,169 Z M331,172 L332,173 L332,174 L333,175 L333,193 L332,194 L332,238 L331,239 L327,239 L326,240 L320,240 L319,239 L316,239 L315,240 L310,240 L308,238 L308,213 L309,212 L309,210 L308,209 L308,206 L309,205 L308,204 L308,202 L309,201 L309,194 L308,193 L308,175 L309,174 L312,174 L313,173 L319,173 L320,174 L322,174 L323,173 L326,173 L327,174 L329,174 L329,173 L330,172 Z M243,174 L254,174 L254,173 L255,172 L256,173 L256,174 L262,174 L263,173 L264,174 L292,174 L293,173 L294,173 L295,174 L296,174 L297,173 L298,174 L299,173 L301,173 L303,175 L303,223 L302,224 L302,232 L303,233 L303,238 L301,240 L265,240 L264,239 L243,239 L242,238 L242,175 Z"/>
<path fill="#d36b3a" fill-rule="evenodd" d="M365,261 L360,261 L359,262 L358,262 L356,264 L356,265 L354,267 L354,269 L353,270 L353,273 L352,274 L352,291 L353,292 L353,297 L354,298 L354,300 L358,304 L359,304 L360,305 L362,305 L364,303 L364,302 L365,301 L361,301 L360,300 L359,300 L358,299 L358,298 L357,297 L357,296 L356,295 L356,291 L355,290 L355,275 L356,274 L356,270 L357,269 L357,268 L360,265 L361,265 L362,264 L364,264 L367,267 L367,268 L368,269 L368,271 L369,272 L369,269 L368,268 L368,265 L367,264 L367,263 Z M320,261 L310,261 L309,262 L306,262 L305,263 L304,263 L303,264 L302,264 L300,266 L300,267 L299,268 L299,269 L297,271 L297,272 L296,273 L296,278 L295,279 L295,284 L296,285 L296,292 L297,293 L297,294 L298,295 L298,297 L304,303 L305,303 L306,304 L310,304 L311,305 L314,305 L315,304 L318,304 L319,303 L321,303 L323,301 L324,301 L327,298 L327,297 L328,296 L328,295 L329,294 L329,291 L328,290 L326,290 L324,292 L324,293 L322,295 L322,296 L318,300 L317,300 L316,301 L310,301 L309,300 L307,300 L304,297 L303,297 L301,295 L301,294 L300,293 L300,290 L299,289 L299,274 L300,273 L300,272 L301,271 L301,270 L306,265 L309,265 L310,264 L316,264 L317,265 L320,265 L321,266 L322,266 L325,269 L325,270 L326,271 L326,272 L327,272 L328,273 L329,272 L329,268 L327,266 L327,265 L324,262 L321,262 Z M276,247 L277,248 L277,251 L278,251 L278,250 L279,249 L280,249 L282,251 L282,253 L282,251 L283,250 L291,250 L292,249 L296,249 L297,250 L332,250 L333,249 L334,249 L335,250 L339,250 L340,249 L343,249 L345,251 L345,252 L344,253 L344,258 L343,259 L343,299 L342,300 L343,301 L343,305 L344,306 L344,309 L345,310 L346,309 L348,309 L348,290 L349,289 L349,286 L348,285 L348,283 L349,282 L349,281 L348,280 L348,278 L349,277 L349,270 L348,269 L348,268 L349,267 L349,266 L348,265 L348,248 L351,246 L353,246 L340,246 L339,245 L338,246 L277,246 Z"/>
<path fill="#e4ba7d" fill-rule="evenodd" d="M275,264 L274,264 L273,265 L273,272 L274,273 L274,280 L275,279 L275,269 L276,268 L276,265 Z M267,250 L266,251 L263,251 L263,254 L262,255 L262,258 L263,259 L263,260 L262,261 L262,262 L263,263 L263,308 L262,309 L262,311 L261,312 L261,313 L263,315 L264,315 L265,316 L266,315 L273,315 L274,316 L275,315 L275,314 L276,313 L276,310 L275,309 L275,306 L272,306 L271,305 L270,305 L269,304 L269,262 L272,259 L275,259 L276,258 L276,256 L277,255 L276,254 L276,252 L274,250 L273,251 L271,251 L270,250 Z M267,250 L269,250 L270,251 L275,251 L276,252 L276,257 L275,258 L272,258 L271,259 L269,259 L268,260 L268,265 L269,266 L269,282 L268,283 L268,293 L269,294 L269,297 L268,298 L268,303 L269,304 L269,306 L271,306 L272,307 L274,307 L275,308 L275,311 L276,312 L273,315 L265,315 L264,314 L263,314 L262,313 L262,311 L263,310 L263,254 L264,253 L264,252 L265,251 L266,251 Z M197,251 L196,252 L196,308 L195,309 L195,312 L196,314 L198,314 L199,315 L219,315 L220,316 L254,316 L252,315 L245,315 L244,316 L227,316 L226,315 L223,315 L222,316 L221,315 L199,315 L196,313 L196,253 L199,251 L214,251 L215,250 L217,250 L218,251 L220,250 L222,251 L231,251 L232,250 L254,250 L256,252 L255,253 L255,256 L255,253 L256,252 L255,250 L225,250 L224,251 L222,250 L214,250 L213,251 L211,251 L210,250 L207,250 L206,251 Z M372,249 L370,249 L369,250 L363,250 L362,251 L360,251 L359,250 L350,250 L350,307 L349,308 L349,310 L350,309 L350,295 L351,294 L352,295 L352,298 L354,302 L357,305 L362,306 L366,304 L368,300 L368,298 L369,297 L369,294 L370,293 L371,294 L371,301 L372,302 L372,315 L371,316 L369,316 L368,315 L364,315 L363,316 L362,315 L360,316 L355,316 L354,315 L349,315 L348,314 L349,313 L347,312 L347,314 L346,315 L347,316 L348,315 L349,316 L371,316 L372,315 L372,292 L373,291 L372,290 L372,275 L373,274 L373,255 L373,257 L372,258 L372,262 L373,263 L372,264 L372,267 L371,268 L369,267 L369,264 L367,262 L367,261 L364,259 L362,259 L358,261 L354,265 L352,269 L352,271 L351,272 L350,271 L350,252 L354,250 L359,250 L360,251 L365,250 L366,251 L372,251 L373,252 L373,250 Z M363,259 L364,260 L365,260 L368,263 L368,264 L369,265 L369,267 L370,268 L370,272 L369,273 L368,273 L367,272 L367,269 L365,267 L365,266 L364,266 L363,265 L362,266 L360,266 L359,267 L359,268 L358,269 L358,270 L358,269 L361,266 L364,266 L366,268 L366,269 L367,270 L367,272 L368,273 L370,273 L371,274 L371,278 L372,279 L372,280 L371,281 L372,282 L371,283 L372,284 L372,288 L371,289 L372,290 L371,291 L370,291 L369,290 L367,290 L367,291 L366,292 L366,295 L365,296 L365,298 L363,300 L362,299 L360,299 L359,298 L359,297 L357,294 L357,289 L356,288 L356,278 L357,277 L357,272 L357,276 L356,277 L356,288 L357,289 L357,294 L358,295 L358,296 L359,297 L359,298 L360,299 L362,299 L363,300 L364,300 L366,297 L366,293 L367,292 L367,291 L368,290 L369,291 L369,296 L368,297 L368,299 L367,300 L367,301 L365,303 L365,304 L364,305 L363,305 L362,306 L360,306 L359,305 L357,305 L354,302 L354,301 L352,298 L352,295 L351,294 L351,272 L352,271 L352,269 L353,268 L353,267 L354,266 L354,265 L358,261 L359,261 L360,260 L362,260 Z M306,167 L337,167 L339,169 L339,171 L340,172 L340,220 L341,221 L341,244 L341,193 L340,192 L340,170 L339,169 L339,168 L338,168 L337,167 Z M252,167 L238,167 L237,168 L236,168 L235,169 L235,183 L234,184 L234,242 L235,243 L235,244 L236,245 L237,245 L236,245 L235,244 L235,239 L234,238 L234,192 L235,191 L235,170 L237,168 L238,168 L239,167 Z"/>
<path fill="#9b91a0" fill-rule="evenodd" d="M331,173 L330,173 L330,174 L329,175 L327,175 L326,174 L323,174 L322,175 L320,175 L319,174 L313,174 L312,175 L309,175 L309,193 L310,194 L310,201 L309,202 L309,204 L310,205 L309,206 L309,209 L310,210 L310,212 L309,213 L309,238 L310,239 L315,239 L310,239 L309,238 L309,232 L310,231 L311,231 L312,232 L313,232 L312,232 L311,231 L311,226 L310,225 L310,221 L309,220 L310,219 L310,210 L309,209 L309,206 L310,205 L309,204 L309,203 L310,202 L310,189 L309,188 L309,177 L311,175 L313,175 L314,174 L319,174 L320,175 L322,175 L323,174 L324,174 L325,175 L330,175 L331,174 L332,175 L332,193 L332,175 L331,174 Z"/>
<path fill="#FFFFFF" fill-rule="evenodd" d="M233,287 L232,287 L231,286 L229,286 L228,287 L219,287 L218,288 L218,291 L219,292 L219,298 L220,299 L224,299 L225,300 L228,300 L229,299 L230,299 L235,294 L235,290 L233,288 Z M218,266 L218,268 L217,269 L217,271 L218,272 L218,276 L220,278 L223,278 L224,279 L225,278 L231,278 L233,276 L233,274 L234,273 L234,269 L233,268 L232,268 L231,267 L230,267 L229,266 L223,266 L222,265 L219,265 Z M286,253 L285,254 L285,271 L286,272 L285,273 L285,291 L284,292 L285,293 L285,298 L286,299 L286,306 L285,307 L285,312 L286,313 L299,313 L300,314 L300,315 L303,315 L304,314 L323,314 L324,313 L325,313 L326,312 L329,312 L330,311 L334,311 L335,310 L336,310 L335,309 L335,308 L336,307 L336,306 L337,305 L337,304 L338,303 L338,296 L339,295 L339,292 L338,291 L338,290 L339,289 L338,288 L338,285 L339,284 L338,283 L338,274 L339,273 L339,255 L340,254 L339,253 L312,253 L311,254 L309,254 L308,253 L291,253 L290,254 L289,253 Z M310,258 L320,258 L321,259 L323,259 L324,260 L326,260 L327,261 L328,261 L329,262 L329,263 L330,264 L330,266 L331,267 L331,269 L332,270 L332,272 L329,275 L326,275 L322,271 L322,269 L321,269 L320,268 L318,268 L317,267 L310,267 L309,268 L306,268 L303,271 L303,273 L302,274 L302,290 L303,291 L303,293 L306,296 L308,296 L309,297 L310,297 L311,298 L316,298 L317,297 L318,297 L321,294 L321,293 L322,292 L322,291 L325,288 L329,288 L331,290 L331,297 L330,298 L330,299 L326,303 L325,303 L323,305 L322,305 L321,306 L317,306 L316,307 L311,307 L310,306 L309,307 L306,307 L305,306 L303,306 L302,305 L301,305 L298,302 L298,301 L297,300 L297,299 L296,298 L296,296 L294,294 L294,291 L293,290 L293,274 L294,273 L294,272 L296,270 L296,268 L297,267 L297,266 L302,261 L303,261 L304,260 L306,260 L307,259 L309,259 Z M200,254 L200,255 L199,256 L199,288 L198,289 L199,290 L199,311 L200,312 L201,312 L202,313 L203,312 L207,312 L208,313 L233,313 L234,312 L238,312 L239,313 L240,312 L245,312 L248,309 L248,308 L250,306 L250,305 L251,304 L251,303 L252,302 L252,273 L253,272 L253,271 L252,270 L252,263 L253,262 L253,256 L252,255 L252,253 L226,253 L225,254 L223,254 L222,253 L205,253 L204,254 Z M210,258 L211,258 L212,257 L230,257 L231,258 L233,258 L234,259 L236,259 L237,260 L238,260 L239,261 L239,262 L241,264 L242,264 L243,265 L243,274 L242,275 L242,277 L241,278 L240,278 L240,280 L242,282 L242,283 L244,285 L244,286 L245,287 L245,296 L244,297 L244,298 L241,301 L241,302 L239,304 L239,305 L238,306 L234,306 L233,307 L229,307 L228,308 L214,308 L213,309 L211,309 L207,305 L207,302 L208,301 L208,260 Z M271,189 L271,191 L270,192 L270,194 L269,195 L269,196 L268,197 L268,199 L267,200 L267,202 L266,203 L266,205 L278,205 L278,203 L277,202 L277,201 L276,200 L276,199 L275,198 L275,197 L274,196 L274,195 L273,194 L273,192 L272,191 L272,189 Z M245,177 L245,179 L246,180 L246,182 L245,183 L245,205 L244,206 L244,207 L245,208 L245,210 L244,211 L244,220 L245,221 L245,236 L246,237 L253,237 L254,238 L278,238 L279,239 L281,239 L280,238 L282,236 L283,236 L284,237 L285,237 L286,236 L288,236 L289,235 L292,235 L293,234 L294,234 L294,233 L295,232 L296,233 L296,235 L296,234 L297,233 L297,232 L296,233 L295,232 L295,231 L297,229 L297,226 L299,224 L299,219 L300,218 L299,217 L299,196 L300,195 L300,176 L271,176 L270,177 L269,177 L268,176 L257,176 L256,177 Z M270,180 L272,180 L277,185 L277,186 L278,187 L278,189 L279,190 L279,191 L280,192 L280,194 L281,195 L281,196 L283,198 L283,199 L284,200 L284,201 L285,202 L285,204 L286,205 L286,206 L287,207 L287,208 L288,209 L288,211 L289,212 L289,213 L290,214 L290,215 L291,216 L291,217 L292,218 L292,219 L293,220 L293,221 L294,222 L294,224 L295,225 L295,226 L296,227 L296,230 L294,232 L291,232 L289,230 L289,229 L288,228 L288,227 L287,226 L287,223 L285,221 L285,220 L284,219 L284,218 L283,217 L283,216 L282,215 L282,213 L281,212 L262,212 L262,213 L261,214 L261,217 L260,218 L260,219 L259,220 L259,221 L258,222 L258,223 L257,224 L257,225 L256,226 L256,227 L255,228 L255,229 L252,232 L251,232 L250,231 L249,231 L248,230 L248,226 L249,225 L249,223 L250,222 L250,220 L252,218 L252,217 L253,216 L253,215 L255,213 L255,210 L256,209 L256,208 L257,207 L257,205 L258,204 L258,203 L259,202 L259,200 L260,199 L260,198 L261,197 L261,196 L262,195 L262,194 L263,193 L263,191 L264,190 L264,189 L265,188 L265,187 L266,186 L266,185 L267,184 L267,183 Z"/>
</svg>